<svg version="1" xmlns="http://www.w3.org/2000/svg" width="1066.667" height="1066.667" viewBox="0 0 800.000000 800.000000"><path d="M100 340.7c.1 322.6-.1 308.6 4.9 322.7 6.3 17.9 24 39.1 43.5 52 7.6 5 22.1 12.2 29.7 14.6 15.6 5.1 14.3 5 105.9 5 59.7 0 87.5.3 91.2 1.1 12.3 2.6 17.4 7.6 20.9 20.3 1.3 4.7 2.6 8.6 2.9 8.6.4 0 1.4-3.4 2.4-7.5 3-12.9 10-19.4 23.1-21.5 3.6-.6 41.4-1 94-1 71 0 89.3-.3 94.5-1.4 21.4-4.6 41.4-15.4 58.5-31.8 14.2-13.5 24.7-30.4 29.2-46.9 1.7-6 1.8-24.4 2-311.2L703 39H100v301.7zm594 6.4c0 270.1-.2 300.7-1.6 306.2-7.9 30.4-38 59.5-73.1 70.4l-8.8 2.8-95 .5c-64.6.4-96 .9-98 1.6-5.7 2.1-11.6 5.5-15.3 8.9-3.6 3.2-3.9 3.3-5 1.5-1.5-2.5-9.2-7.7-14.4-9.8-3.9-1.5-12.8-1.7-96.8-2.2-105.9-.6-96.7.2-118.6-10.5-27.3-13.2-48.3-35.7-55.9-59.8l-2.5-7.8V47h585v300.1z"/><path d="M316 69.2c-.6 2.4-1.3 5.1-1.6 6-.8 2.9 1.4 2.1 3-1s5.8-5.5 8.1-4.6c1.3.5 1.5 3.5 1.5 18.5V106l-2.7 1.2c-2.8 1.2-2.8 1.2 1.5 1.6 2.3.2 6.1.2 8.5 0 4.2-.4 4.2-.4 1.5-1.6L333 106V88.1c0-9.9.4-18.2.9-18.5.5-.3 2.3-.3 4 0 2.3.5 3.4 1.5 4.3 4 1.8 5.1 2.8 4.1 2.8-2.7 0-5.7-.1-5.9-1.9-4.7-2.4 1.7-22.5 1.5-24.6-.2-1.1-.9-1.6-.3-2.5 3.2zM531 70c-1.5 6.4-.9 8.3 1.5 4.2 1.8-3 6.8-5.7 8.6-4.6.5.3.9 8.8.9 19 0 17.7-.1 18.4-2 18.4-1.1 0-2 .4-2 1s3.2 1 7.5 1c4.1 0 7.5-.2 7.5-.5s-1.1-1-2.5-1.5l-2.5-1V88c0-19.6 0-19.7 5.5-18.2 2.2.6 3.3 1.7 4 4 .5 1.8 1.2 3.2 1.6 3.2.8 0 2.2-11.1 1.4-11.8-.2-.3-1.2.1-2.1.9-2 1.6-23.7 1.6-24.2-.1-.8-2.3-2.1-.7-3.2 4zM354.5 74.6c-7.8 26.1-10 31.9-12.4 33-2.1 1.1-1.7 1.2 3.9 1.6 6.2.3 8.7-.5 5.1-1.7-2.8-.8-3-2.3-1.3-8.3l1.5-5.2h9.6l1.6 5.2c1.9 6.4 1.9 7.8.1 7.8-.8 0-1.8.4-2.1 1-.4.6 2.2 1 7.2.9 7.4 0 7.7-.1 5.5-1.6-1.7-1.2-3.7-6.2-8.3-20.7-3.4-10.5-6.5-19.5-6.9-20-.5-.4-2 3.2-3.5 8zm3.8 11.1l1.6 5.3h-4c-3.4 0-3.9-.3-3.5-1.8.3-.9 1-3.9 1.7-6.6 1.3-5.4 1.8-5 4.2 3.1zM383.4 67.4C379 69.3 377 72.7 377 78c0 5.5 1.7 8.2 7.5 11.6 5.2 3 9.5 7.8 9.5 10.4 0 4.4-4.1 9-8 9-2.2 0-7-5.4-7.6-8.6-.9-5-2.4-4.2-2.4 1.4 0 6.4 2.2 8.5 8.9 8.6 8.4.2 14.7-6.7 13.7-14.8-.6-5.3-3.1-8.4-10.1-12.7-7.1-4.3-8.8-7.7-5.8-11.8 3.7-4.9 8.6-3.5 11.4 3.1 1.6 3.9 3 1.7 2-3.2-.5-2.5-1.3-3.6-3.1-4.1-3.8-1.1-6.2-.9-9.6.5zM431.5 67.5c-14.2 5-18.2 26-7.1 37.1 5 5 10.5 6.9 16.6 5.5 5.8-1.3 8-3.6 8-8.3 0-4.6-1.3-4.9-3-.7-2 4.7-4.9 6.9-9.1 6.9-7.5 0-12.4-8.9-11.7-21.2.5-8.6 2.9-14.3 7.2-16.9 4.8-2.9 7.4-2.4 11.8 2.3 2.1 2.3 4 3.9 4.2 3.7.3-.2.1-2-.3-3.9-.5-2.8-1.3-3.7-4.1-4.7-4.6-1.6-7.6-1.5-12.5.2zM462 79.1c-8.6 27.7-8.3 27-11 28.4-1.4.8-2.3 1.5-2 1.5 2.6.5 12 .3 12-.2 0-.4-.9-1.2-2-1.8-1.3-.7-1.9-1.8-1.6-2.8.3-.9 1-3.6 1.6-6l1.1-4.2h9.5l1.7 5.3c2.2 6.9 2.1 7.2-.5 8.5-1.8.8 1.2 1.1 13 1.1 10 .1 15.1-.2 14.7-.9-.3-.6-1.2-1-2-1-1.9 0-2.5-2.3-2.5-10v-6.9l4.9.6c4.5.5 5.2.3 7.4-2.1 3.1-3.3 4.1-8.4 2.7-13.6-1.6-5.8-3.9-6.9-15.3-7.2-9.3-.3-12 .3-7.7 1.7 1.9.6 2 1.5 2 19v18.3l-2.7.5c-1.9.4-3.4 0-4.5-1.1-.9-.9-4.2-10-7.3-20.2-3.2-10.2-6.1-18.9-6.5-19.4-.5-.4-2.7 5.2-5 12.5zm38.5-7.6c5 4.9 2.5 17-3.3 16.3-2.6-.3-2.7-.5-3-8.1-.4-10.6 1.5-13.1 6.3-8.2zm-35.3 19.3c-1.9.2-3.6.1-3.8-.1-.3-.2.3-3.3 1.3-6.7l1.7-6.3 2.1 6.4 2.2 6.4-3.5.3zM174 68.2c0 .4.9 1 2 1.3 1.9.6 2 1.5 2 18.6V106l-2.7 1.3c-2.5 1-1.3 1.3 9.2 1.7 6.6.3 12.4.2 12.9-.2.4-.3 1-2.8 1.3-5.5.4-4.5.3-4.7-1.2-2.8-5 6.2-5.5 6.6-9.3 6.3l-3.7-.3-.3-18.2c-.2-17.5-.2-18.2 1.8-18.8 3.9-1.2 1.9-2-5-2-3.8 0-7 .3-7 .7zM201 68.2c0 .4.9 1 2 1.3 1.9.6 2 1.5 2 19.1 0 17.7-.1 18.4-2 18.4-1.1 0-2 .4-2 1s3.2 1 7.5 1 7.5-.4 7.5-1-.9-1-2-1c-2.8 0-3.1-2.3-2.8-20.5.3-15.9.3-15.9 2.8-17.2 1.4-.7 2.3-1.3 2-1.3-3.6-.5-15-.3-15 .2zM224 67.6c-4.8.9-5.7 1.6-3 2.3l2.5.7.3 15.9c.3 17.4-.1 20.5-2.3 20.5-.8 0-1.5.4-1.5.9s4.7 1.2 10.5 1.6c9.5.6 10.7.5 13.8-1.4 7.4-4.6 7.8-15.6.7-20l-3.1-1.8 2.5-1.6c5-3.3 4.1-12.3-1.5-15.2-2.9-1.5-14.6-2.7-18.9-1.9zm15.4 4.3c.9 1 1.7 3.5 1.8 5.6.1 3-.4 4.3-2.6 6.2-3.1 2.6-8.5 3.2-8.7.8-.1-.8-.1-2.2-.1-3 0-.8 0-3.8.1-6.5l.1-5h3.8c2.5 0 4.5.7 5.6 1.9zm1.1 18.6c2 1.9 2.5 3.4 2.5 7.2 0 2.6-.6 5.6-1.4 6.5-1.7 2.3-5.6 3.6-8.6 2.8-2.4-.5-2.5-1-3-8.8-.3-4.5-.3-8.7-.2-9.2.2-.6 2.1-1 4.3-1 2.9 0 4.7.7 6.4 2.5zM254.4 68.2c-.2.4.5.9 1.6 1.3 1.9.6 2 1.5 2 19.1 0 17.5-.1 18.4-1.9 18.4-1.1 0-2.2.4-2.5.9-.7 1.1 24.5 2 25.8 1 .4-.4 1-2.9 1.3-5.6l.4-4.8-1.8 2.5c-3.7 5.1-5.2 6-9.8 6-5.3 0-5.8-.9-5.3-11.5l.3-7 3.2-.3c3.2-.3 5.3 1.1 8 5.4 1 1.6 1.2.7 1.2-5.4.1-4.2-.3-7.2-.9-7.2-.5 0-1 .7-1 1.5 0 2-3.2 3.5-7.5 3.5h-3.6l.3-7.8.3-7.7 4.3-.3c3.9-.3 4.7.1 7.8 3.4l3.5 3.7-.3-4.9-.3-4.8-12.3-.1c-6.8 0-12.6.3-12.8.7zM285 68.2c0 .4.9 1 2 1.3 1.9.6 2 1.5 2 19.1 0 17.7-.1 18.4-2 18.4-1.1 0-2 .4-2 1s3.2 1 7.5 1c4.1 0 7.5-.2 7.5-.5s-1.1-1-2.5-1.5c-2.4-.9-2.5-1.3-2.5-9.5 0-8.3.1-8.6 2.2-8.3 1.7.2 3 2.3 6.1 10l3.9 9.8 5.2-.1c4.3 0 4.8-.2 2.9-1.1-1.4-.7-3.6-4.3-6.2-10.4l-4-9.3 2.9-3c4-4 4.3-10.9.5-14.6-1.3-1.4-3.2-2.6-4.2-2.7-4.8-.5-19.3-.2-19.3.4zm18.5 4.1c.8 1.2 1.5 4.1 1.5 6.4 0 5.3-2.8 8.6-6.8 8.1-2.6-.3-2.7-.5-3-7.8-.2-5.9 0-7.7 1.3-8.6 2.1-1.5 5.2-.7 7 1.9zM512.4 68.1c-.2.4.7 1 2.1 1.3l2.5.6v36l-2.7 1.2c-2.8 1.2-2.8 1.2 1.5 1.6 2.3.2 6.1.2 8.5 0 4.2-.4 4.2-.4 1.5-1.6L523 106V88.1c0-17.1.1-18 2-18.6 1.1-.3 2-.9 2-1.3 0-.9-14.1-.9-14.6-.1zM569 67.9c-5.8.5-6.9.8-4.7 1.4l2.7.7v16.1c0 17.2.7 20.4 5.2 22.6 6.6 3.3 15.5 2.2 18.6-2.4 1.4-2.2 1.8-5.8 2.2-19.2.5-16.4.5-16.6 3-17.8 1.4-.7 2.1-1.3 1.5-1.4-1-.1-10.6-.1-11.5.1-.3 0 .6.6 2 1.3l2.5 1.3v16.8c0 16.4 0 16.8-2.4 18.7-3 2.5-9.2 2.5-12.2 0-2.3-1.9-2.4-2.4-2.7-18.9-.3-16.5-.3-17 1.7-17.7 1.2-.3 2.1-1.1 2.1-1.6s-.1-.8-.2-.7c-.2.1-3.7.4-7.8.7zM600.4 67.9c-.2.2.6.9 1.9 1.5 2.1 1.1 2.2 1.6 2.5 18.9l.2 17.7-2.5 1c-1.4.5-2.5 1.2-2.5 1.5 0 .3 3.4.5 7.5.5 4.3 0 7.5-.4 7.5-1s-.9-1-2-1c-1.9 0-2-.7-2-9 0-7 .3-9 1.4-9 2 0 3 1.6 6.7 11.2l3.4 8.8h5c4.7 0 4.8-.1 2.8-1.5-1.1-.8-3.5-5-5.3-9.2-1.8-4.3-3.6-8.2-4-8.7-.5-.5.4-2.1 2-3.6 5.2-4.9 4.9-13.1-.7-16.7-2.1-1.4-4.7-1.8-12.1-1.8-5.1 0-9.6.2-9.8.4zm17.9 3.6c5 5 2 15.5-4.5 15.5H611V70h2.9c1.6 0 3.6.7 4.4 1.5zM190.5 127.3c-.3.6-.4 106.5-.2 235.2.2 221.6.3 234.3 2 240 3.8 12.5 8.5 20.4 18.2 30 6.9 7 10.7 9.9 16.5 12.7 16 7.9 2.1 7.3 174.5 7.3 144.7 0 154.4-.1 160.5-1.8 23.6-6.5 40.5-22.7 48.6-46.7 1.8-5.3 1.9-14.3 2.2-241.8L613 126H402c-168.1 0-211.2.3-211.5 1.3zm417.3 125.6c.1 66.8-.1 121.8-.5 122.2-.5.4-6-.5-12.3-2.1-14.8-3.6-27.6-5.8-42-7.1-6.3-.6-13.7-1.4-16.5-1.7l-5-.7-3.7-7.6c-4.3-8.6-6.5-19.8-5.4-27.2.8-5.3 2.7-6.8 5.3-4.2 1.3 1.4 2.7 1.6 6.9 1.1 3.1-.4 5.5-.2 5.9.4 1.1 1.8 4.2 1.1 5.2-1.3.8-1.8 1.8-2.2 6-2.2 5.3 0 8.3-1.6 8.3-4.4 0-.9 2.3-3.4 5-5.5 3.9-3 5-4.4 5-6.7 0-1.6 1.4-4.8 3.2-7.4 3.2-4.5 3.2-4.6 1.5-7.4-1.1-1.9-1.5-3.9-1.1-6 .5-2.6 0-3.9-3-7.8-2-2.5-3.6-5.2-3.6-5.9 0-2-4.9-4.8-8.4-4.9-2.8 0-3.1-.4-3.4-3.3-.2-1.9-.9-3.2-1.7-3.2-3.3 0-2.4-8 1.2-10.8 1.9-1.4 2.4-8.3.6-8.9-.5-.2-1.9-1-2.9-1.8-1.5-1.1-1.7-1.6-.6-2.6 2-2.1 1.4-4.8-1.3-5.5-2-.5-2.5-1.3-2.5-3.6 0-2.2-1.1-3.9-4.6-7.1-2.6-2.3-5.5-4.9-6.4-5.9-1.5-1.3-1.8-3.4-1.8-12.6 0-11.8-.3-13.2-3.1-13.2-2.4 0-6.1-5.3-6.1-9 0-2.5-.6-3.3-3.5-4.7-2.6-1.3-4-1.4-5.8-.6-1.7.8-3.2.7-5.6-.3-1.8-.8-4.7-1.4-6.4-1.4-1.8 0-4-.9-5.4-2.1-1.8-1.8-2.5-2-3.8-.9-.8.7-1.5 2.4-1.5 3.7 0 2.4-.2 2.5-4.4 1.9-3.3-.5-4.8-.3-6 .9-1.8 1.9-2.1 4.1-.6 5 2.1 1.3.9 4.6-3.5 9.5-5 5.7-5.2 6.4-2.8 11.5 1.4 2.9 1.5 3.9.4 5.9-.7 1.3-1 3.3-.6 4.5.5 1.6.1 2.7-1.6 4.2-1.2 1-2.6 1.9-3.1 1.9-.4 0-.8.9-.8 2s-1.2 2.7-2.6 3.7c-1.4.9-3 2.7-3.5 4-.6 1.5-1.7 2.3-3.3 2.3-3.1 0-4.8 2.7-3.3 5.1.9 1.4.7 2.3-.9 4.1-3 3.5-4.2 6.8-4.7 12.9-.2 3.1-1.4 7.7-2.7 10.5-1.3 2.7-2.4 5.8-2.5 6.9 0 1.4-.9 2.1-3 2.5-2.6.5-3 .9-3 3.9 0 2.3-.6 3.7-2 4.5-2.9 1.6-3.4 2.7-2.8 5.7.3 1.5 0 3.5-.5 4.6-.7 1.3-.8 4.4-.1 9.3.7 5.9 1.4 7.9 3.6 10.2 1.5 1.5 3.3 2.8 4 2.8.7 0 1.3.4 1.3 1 0 2.1 4.5 5 7.7 5 1.8 0 3.3.4 3.3 1 0 .5 1.1 1.2 2.5 1.6 1.4.3 2.5 1 2.5 1.4 0 3.8 8.1 5.1 15.5 2.5 2.1-.8 4.2-1.2 4.5-.9.3.3.5 4.7.4 9.7-.1 9.9-1.8 15.6-7.3 25.3l-3 5.1-6.3.7c-12.8 1.3-34.7 4.7-48 7.4l-13.8 2.8V131l102.3.2 102.2.3.3 121.4zM344.9 148.4c-4.1 4.1-26.8 20.5-27.7 20.1-2.7-1-24.2-17-23.3-17.3 2.7-.9 51.8-3.6 51-2.8zm6.1 10.3c0 4.2-2.2 30.8-2.5 31.2-.2.1-5.4-3.1-11.4-7.4l-11.1-7.6 11.8-9.4c6.4-5.1 12-9.4 12.5-9.4.4-.1.7 1.1.7 2.6zm-51.3 9c5.1 3.5 9.5 6.7 9.8 7.2.4.8-20.4 18.1-21.8 18.1-.6 0-1.4-9.6-2.1-24.8l-.5-10.4 2.7 1.8c1.5.9 6.8 4.6 11.9 8.1zm31.5 30.1c-6.1.1-16.2.1-22.5 0l-11.5-.3 10.6-8.2 10.6-8.2 11.9 8.2 11.9 8.2-11 .3zm-22.1 12.5c-1.1 1.4-.5 2.7 1.3 2.7.6 0 .5-.4-.3-.9-1.8-1.2 4-2.5 6.9-1.6 1.9.6 2.3 2.2 2.3 10.7 0 1 .5 1.4 1.3 1.1.8-.3 1.4.1 1.4.8 0 1 .2 1.1.8.2.7-1.1 2.4-1 9.1.8 1.6.4 2.8-2.8 3-7.8.1-3 .2-3.1 3-2.3 1.6.4 3.2.6 3.4.3.7-.7 1.5 2.4 2.2 9.2.3 3.3.8 7.3 1.2 8.9.4 2.5.3 2.8-1.3 2.2-1.7-.5-1.7-.4.1 1 2 1.6 2 1.6-.2 1.1-3-.7-3.5.3-3.5 7.6-.1 10.1 0 10.2 2.8 10.3 3.4.2 3.5.5 4 6.1.2 2.6.6 6.1 1 7.6l.7 2.8-4.9-.5c-19.6-2.1-27.9-2.6-42.7-2.6-12.9-.1-16.6-.3-16-1.3.5-.9.4-.9-.8 0-.8.6-6.8 1.4-13.4 1.7-6.6.4-13.6.9-15.6 1.2-3.5.6-3.6.5-5.7-4.8-1.4-3.2-1.6-4.6-.7-3.4 1.1 1.5 1.5 1.6 1.5.5 0-.8-.5-2-1.1-2.6-.8-.8-.8-1.7 0-3.1.8-1.5.8-2.2-.2-2.5-2.1-.7 0-1.9 2.2-1.2 1.3.4 1.9 1.1 1.5 1.8-.5.8-.2.8.7-.1 1.6-1.4 3.3-1.6 2.4-.2-.4.6.3.9 1.7.7 2.2-.4 2.3-.8 2.6-9.6.3-8.9.2-9.2-1.8-8.6-1.3.4-2 .2-2-.7 0-1-.2-1-.9.1-.5.8-1.6 1.1-2.5.8-1-.4-1.6-.1-1.6.8 0 .8-.4 1.5-1 1.5-1.5 0 0-16.2 1.8-18.3 1.6-1.8 3.8-2.4 2.7-.8-.3.5-.1 1.2.5 1.6.6.4.9-.4.8-1.9-.3-3.1-.5-3.1-3-.9-1 .9-1.8 1.1-1.8.5 0-.6.9-1.7 2-2.5s1.7-1.7 1.2-2.2c-.4-.5-.2-.5.5-.2.6.4 1.3.1 1.5-.5.3-.7.5.1.6 1.7.2 5.3.8 7 2.8 7 1 .1 2.5.5 3.3.9 1 .6 1.2.5.7-.2-.5-.9.6-1.2 3.8-1.2 3.6 0 4.8-.4 5.7-2.1.9-1.7.8-2-.2-1.4-.8.6-1 .4-.5-.4.5-.7.8-2.8.8-4.7 0-3.2.2-3.4 3.2-3.3l3.1.1-3 .8c-1.7.4-2.2.8-1.1.9 1.3.1 1.6.6 1.1 1.8-.4 1.3-.1 1.2 1.5-.5 1.1-1.2 2.5-2.2 3-2.2 1.4 0 6 6 5.9 7.8 0 1.4-.2 1.3-1-.3-.9-2-.9-2-.6 0 .3 2.3 5.9 3.7 11.7 2.9 1.9-.3 4.4-.7 5.4-.8 1.1-.2 2.2-.8 2.4-1.4.2-.7.8-.9 1.3-.6.7.4.8-.7.4-3-.7-3.6.6-6.6 2.7-6.6.7 0 .6.5-.1 1.3zm-48.4 8.9c-.3.8-.6.5-.6-.6-.1-1.1.2-1.7.5-1.3.3.3.4 1.2.1 1.9zm-9.7 28c0 1.9-1.6.5-1.7-1.4-.2-1.8 0-2 .7-.8.5.8 1 1.8 1 2.2zm0 2.8c0 .5-.7 1-1.6 1-.8 0-1.2-.5-.9-1 .3-.6 1-1 1.6-1 .5 0 .9.4.9 1zm55.3 23.8c-.6.4 2.8.7 7.5.7 4.8 0 9.8.4 11.2.8 2 .7 2.2.6 1-.3-1.2-.9-.6-1 2.5-.4 2.2.4 5.9.6 8.3.5 3-.1 4.4.3 4.8 1.4.5 1.1 1 1.3 1.9.5.9-.7 1.9-.5 3.4.7 1.9 1.6 2.2 3 2.4 10.5.1 4.9.5 8.8.8 8.8.6 0 1 4.3 1.3 13.7 0 3 .4 4.6.9 4 .5-.7.7.9.4 3.5-.2 2.6-.1 5 .3 5.5.6.7 2.4 18 2.9 28.3.1 1.4.3 5.8.6 9.8l.4 7.3-3.2-.7c-3.2-.7-5.3-.9-12.6-1.2l-3.9-.2-.7-6.8c-.7-6.7-4.9-18.2-6.7-18.2-.6 0-.8-.7-.5-1.4.4-1.1.1-1.3-1-.9-1.2.5-1.5.2-1.1-.8.4-.9-.2-1.5-1.6-1.6-1.1-.2-4.4-.6-7.2-.9-3.4-.4-6.2-.1-8.7.9-4 1.7-9.5 8.6-10.4 13-.3 1.7-.9 2.4-1.3 1.7-.4-.6-.6 1.8-.4 5.4.1 4.1-.2 6.8-.9 7.4-.7.5-7.5.9-15.2 1h-14l-3.2-3.6c-1.8-2-3.3-3.2-3.3-2.7 0 .4-.9 0-2-1s-2-1.3-2-.7c0 .6.6 1.2 1.3 1.5.6.2.9.8.5 1.2-.9 1-4-1.4-3.2-2.6.9-1.6-1.5-4.7-4.3-5.4-2.4-.6-2.6-.8-1-1.6 1-.6 3.1-1.1 4.6-1.1l2.9-.1-2.6-2.3c-1.4-1.3-3.3-2.4-4.4-2.4-1.5 0-1.7-.5-1.3-2.8.3-1.5.2-2.1-.1-1.4-.4.9-1.1.4-2.1-1.5-2-3.8-2.5-7-1.3-7.8.5-.3 1 .2 1.1 1.2 0 1 .3 1.3.5.6.3-.7 0-2.1-.6-3.2-.8-1.5-.8-2.7.1-4.2.7-1.5.8-1.9 0-1.5-.7.5-.9-.4-.4-2.6.3-1.8.7-3.5.9-3.7.2-.2-.1-1-.7-1.7-.9-1.1-.4-2.1 2-4.3 2.9-2.7 4.2-4.9 2.1-3.6-1.1.7-5-2.4-5-4 0-.5.7-2.2 1.4-3.7 1-1.9 1.1-2.7.3-2.5-.7.1-1.3-.9-1.3-2.3-.1-1.4-.5-3.3-.9-4.3s-.2-2.4.5-3.2c.7-.8.9-1.5.4-1.5-.4 0-.3-.5.4-1.2s1.2-2.3 1.2-3.6c0-1.5.4-2.1 1.2-1.6.8.5.9.2.5-.9-.3-1-.2-1.7.3-1.7s1.1.8 1.3 1.7c.3 1.2.5 1 .6-.7.1-2.8.8-2.9 14.6-3.3 3.9-.1 7.5-.5 8-.8.6-.3 6.2-.7 12.5-.8 6.3-.1 11.6-.4 11.9-.6.2-.3 2.3-.5 4.5-.5 2.3 0 3.6.4 2.9.8zm300.9 188.9c.3 112.1 0 131.5-1.8 138.8-2.3 8.9-8.1 19.2-15.1 26.5-6.8 7.2-14 11.9-24.1 15.9l-6.7 2.6-78.2.3-78.3.3V384h204l.2 78.7zm-365.8-54.1c3.3.4 7 .7 8.1.5 1.7-.1 1.5.3-1 2.6-1.7 1.5-4.5 4-6.3 5.5l-3.3 2.7 2 7.6c1 4.1 1.6 7.3 1.2 7.2-.3-.2-3.4-2-6.8-4.1l-6.2-3.7-6.3 4c-4.1 2.6-6.4 3.6-6.6 2.8-.1-.7.6-4.1 1.6-7.5l2-6.1-6.4-5.3c-4.3-3.6-5.8-5.4-4.6-5.5.9-.1 4.6-.5 8.2-.8l6.6-.6 2.9-7.6 2.9-7.5 2.9 7.5 2.9 7.5 6.2.8zm127.5-5.5c1.7 4.1 2.3 4.7 5.8 5.2 2.1.4 5.7.7 8.1.7h4.4l-6.5 5.5-6.5 5.6 2 7c1.1 3.9 1.8 7.2 1.6 7.4-.2.2-3.2-1.4-6.7-3.6l-6.3-4-6.6 4c-3.7 2.2-6.7 3.9-6.9 3.8-.1-.2.6-3.5 1.6-7.5l1.9-7.2-6.1-5.4-6-5.3 8.1-.7 8.1-.7 2.8-7.4c3.1-8.4 2.6-8.6 7.2 2.6zm-66.9-2.5c1.4 3.7 3 6.8 3.5 7 2.1.8 6.2 1.3 11 1.3l5 .1-4 3.2c-2.2 1.8-5.1 4.3-6.4 5.4l-2.5 2.2 1.7 7.2c1 4 1.6 7.4 1.5 7.6-.2.1-3.2-1.5-6.6-3.7l-6.3-4-6.6 4c-3.7 2.2-6.8 3.9-7 3.8-.3-.4 2.7-10.9 3.6-12.8.7-1.1-.7-2.8-5.8-7-6.5-5.3-6.5-5.4-3.6-5.7 1.7-.1 5.3-.5 8.2-.8l5.2-.5 2.7-7c1.5-3.8 3-6.9 3.3-6.9.4 0 1.8 3 3.1 6.6zm-69.4 51.9l2.9 7.5 4 .1c2.2 0 5.7.3 7.9.7l3.8.7-6.1 4.9c-3.3 2.7-6.1 5.1-6.1 5.3 0 .2.9 3.6 2 7.5s1.8 7.3 1.7 7.5c-.2.1-1.9-.8-3.8-2.1-1.9-1.2-4.8-3.1-6.5-4.1l-3.2-1.8-6.1 3.8c-3.4 2-6.4 3.5-6.7 3.2-.3-.2.3-3.5 1.2-7.2l1.7-6.8-5.9-5.2-5.9-5.3 6-.6c3.3-.4 6.9-.8 7.9-.9 1.4-.1 2.8-2.2 4.9-7.5 1.6-3.9 3-7.2 3.2-7.2.1 0 1.5 3.4 3.1 7.5zm69.9.7c2.7 6.6 2.9 6.8 6.4 6.8 2 0 5.4.3 7.5.7l3.9.6-5.8 5.2-5.9 5.2 1.2 5.4c.7 3 1.5 6.4 1.9 7.7.5 2.2.3 2.2-5.1-1.3-3.1-1.9-6.2-3.8-7-4.1-.8-.3-3.8 1-6.8 2.8-2.9 1.9-5.8 3.7-6.5 4.1-1 .7-.2-4.5 2.2-12.8.5-1.7-.7-3.1-5.6-7l-6.1-5 3.8-.7c2.2-.4 5.8-.7 8-.7l4.1-.1 2.9-7.5c1.6-4.1 3.1-7.1 3.5-6.7.3.4 1.9 3.7 3.4 7.4zm65.6-.4c1.9 4.7 3.2 6.8 4.5 6.9 1.1.1 4.6.5 7.9.8l5.9.7-5.9 5.2-5.9 5.3 1.2 5.4c.7 3 1.5 6.4 1.9 7.7.5 2.2.3 2.2-5.1-1.3-3.1-1.9-6.2-3.8-7-4.1-.8-.3-4.3 1.3-7.7 3.5-3.5 2.2-6.5 3.9-6.6 3.7-.1-.1.7-3.5 1.7-7.6 1.6-6.1 1.7-7.7.7-8.5-.7-.6-3.5-2.8-6.2-5l-4.8-4 3.9-.7c2.1-.4 5.8-.7 8-.7l4.1-.1 2.9-7.5c1.5-4.1 3.1-7.2 3.4-6.9.2.3 1.7 3.6 3.1 7.2zm-134.6 53.4l2.5 5.8h5.9c9.6 0 9.8.5 3 6.2-4 3.4-5.8 5.6-5.5 6.7.3.9 1 3.6 1.6 6.1.6 2.5 1.4 5.3 1.6 6.3.4 1.3-1.3.6-6.4-2.7l-6.9-4.4-6.3 3.9c-3.4 2.2-6.4 3.8-6.7 3.6-.2-.3.3-3.2 1.1-6.5.9-3.3 1.6-6.6 1.6-7.3-.1-.8-2.5-3.4-5.5-5.8s-5.5-4.7-5.5-5.2c0-.4 3.4-.9 7.6-1.1l7.6-.3 3.1-7.4c2.5-5.9 3.3-7 3.9-5.5.4 1 1.9 4.5 3.3 7.6zm68.9-1.3l2.8 7.1h6.8c3.8 0 7.1.4 7.5.9.3.5-2 2.9-5 5.3-3 2.3-5.5 4.9-5.5 5.6 0 .8.7 4.1 1.6 7.4.8 3.3 1.3 6.2 1 6.5-.2.3-3-1.1-6-3.1-3.1-2-6.2-3.6-6.9-3.6-.6 0-4 1.8-7.4 4-3.5 2.2-6.3 3.8-6.3 3.7 0-.1.9-3.6 2-7.7l2-7.5-5.3-4.7c-2.8-2.6-5.5-4.8-5.9-4.8-.5 0-.8-.4-.8-.9 0-.4 3.2-.9 7.2-1 4-.1 7.7-.6 8.3-1.1.5-.4 2.1-3.8 3.4-7.4 1.4-3.5 2.8-6.3 3.1-6.1.4.2 1.9 3.6 3.4 7.4zm65.7-.1l2.7 6.7 7.6.3c4.2.2 7.6.6 7.6 1.1 0 .4-2.6 2.9-5.9 5.5l-5.9 4.7 1.9 7.2c1 3.9 1.6 7.3 1.4 7.6-.3.2-3.2-1.4-6.6-3.7l-6.2-4-5.3 3.4c-8.6 5.5-8.5 5.6-6.3-2.8 1-4 1.9-7.4 1.9-7.5 0 0-2.7-2.3-6-5-3.3-2.6-6-5.1-6-5.5 0-.4 3.5-.8 7.7-1l7.8-.3 3-7.1c1.6-4 3.2-7 3.5-6.7.3.2 1.7 3.5 3.1 7.1zm-129.9 58.6c1.7.3 5.4.6 8.2.6l5.1.1-3 2.7c-1.7 1.5-4.5 3.9-6.3 5.4l-3.3 2.7 2 7.6c1 4.1 1.7 7.5 1.5 7.5-.3 0-3.3-1.8-6.8-4l-6.4-4.1-6.3 4c-3.5 2.2-6.5 3.8-6.7 3.6-.2-.2.4-3.6 1.4-7.5l1.9-7.1-4.5-3.7c-9.6-8-9.1-7.1-3.5-7.2 11.3-.1 11.8-.4 15-8.7l2.9-7.5 2.9 7.5c2.6 6.6 3.3 7.6 5.9 8.1zm63.9-7.7c2.9 7.6 3.6 8 13.4 8.2l6 .1-4 3.2c-2.2 1.8-5.1 4.3-6.4 5.4l-2.5 2.2 1.7 7.2c1 4 1.6 7.4 1.4 7.6-.1.2-3.1-1.5-6.6-3.7l-6.3-4-6.5 4.1c-3.6 2.3-6.6 4-6.7 3.8-.2-.2.5-3.5 1.5-7.3l1.8-7-6.2-5.7-6.2-5.7 4.5-.1c2.5 0 6.2-.3 8.2-.6 3.4-.6 3.8-1.1 6.5-7.5 1.5-3.8 3-6.9 3.3-6.9.3 0 1.7 3 3.1 6.7zm66.1.8c2.7 6.7 3.7 7.2 13.3 7.4l6 .1-4 3.2c-9.7 8-9 6.9-7.7 12.9.7 3 1.5 6.5 1.9 7.9.6 2.4.6 2.4-1.8.9-1.3-.9-4.4-2.8-6.9-4.2l-4.5-2.6-6.4 4c-3.5 2.2-6.5 3.8-6.7 3.7-.2-.2.5-3.6 1.5-7.6l1.9-7.1-6.2-5.5-6.1-5.5 4.5-.1c2.5 0 6.2-.3 8.2-.6 3.5-.6 3.9-1 6.4-7.6 1.5-3.8 3.1-6.5 3.5-6.1.4.4 1.8 3.5 3.1 6.8zm-66.1 51.3l2.7 6.7 8 .9 8 .9-5.9 4.9c-3.2 2.7-5.9 5.7-5.9 6.7s.7 4 1.5 6.7 1.5 5.5 1.5 6.2c0 .7-2.7-.5-6.4-2.8-3.5-2.2-6.6-4-6.9-4-.3 0-3.4 1.8-6.9 4-3.4 2.1-6.3 3.8-6.5 3.6-.1-.1.6-3.5 1.8-7.6l2-7.3-3.8-3.1c-2.1-1.7-4.9-4.1-6.3-5.3l-2.5-2.1 8.2-.7 8.3-.8 2.7-7.2c1.6-4 3-7.1 3.3-6.8.3.2 1.7 3.5 3.1 7.1z"/><path d="M279.7 213.4c-.4 1-.1 1.3.9.9.7-.3 1.4-.9 1.4-1.4 0-1.4-1.7-1-2.3.5zM316.6 215.5c.4.8.8 1.5 1 1.5.2 0 .4-.7.4-1.5s-.4-1.5-1-1.5c-.5 0-.7.7-.4 1.5zM335.9 218.8c-.3 2-.2 2.9.4 2.3.5-.5.7-1.9.5-3.2-.3-2-.5-1.9-.9.9zM338.6 217.3c.3 1 .9 1.5 1.2 1.2.3-.3 0-1.1-.7-1.8-1-.9-1.1-.8-.5.6zM305.1 222.6c0 1.1.3 1.4.6.6.3-.7.2-1.6-.1-1.9-.3-.4-.6.2-.5 1.3zM259.9 225.7c-1.3 1.6-1.2 1.7.4.4.9-.7 1.7-1.5 1.7-1.7 0-.8-.8-.3-2.1 1.3zM331.8 227.7c.7.3 1.6.2 1.9-.1.4-.3-.2-.6-1.3-.5-1.1 0-1.4.3-.6.6zM291.4 232.4c1.1.9 2.4 1.6 3 1.6 1.2 0 .7-.5-2.4-1.9-2.4-1.1-2.4-1.1-.6.3z"/><path d="M305.5 233.2c-1.7 1.7-3 1.9-8.8 1.5-3.7-.2-7-.1-7.3.4-.2.4-1.1.6-1.8.3s-1.6.2-2 1.2c-.6 1.5-.4 1.5 1.1.3s1.6-1.2 1 .4c-.4 1-.3 1.6.2 1.2.5-.3 1.6-.2 2.5.1 1.8.7 2.3 8.8.6 9.9-2.4 1.5-.6 2.3 4.9 2.2 3.3-.1 5.8 0 5.6.3-.2.3.8 1 2.1 1.7 3.3 1.5 4.1-.2 4.3-9.5.1-5.7-.1-7.4-1.4-7.8-1.4-.6-1.3-.8.2-1.9 1-.8 1.6-1.5 1.3-1.8-.3-.2-1.4.4-2.5 1.5zM336.5 233.1c-.4.6-.5 1.2-.2 1.5.2.3.7-.2 1-1.1.7-1.7.1-2-.8-.4zM256 234c.8.5 2 1 2.5 1 .6 0 .3-.5-.5-1s-1.9-1-2.5-1c-.5 0-.3.5.5 1zM334 238.5c0 1.4.2 2.5.4 2.5s.6-1.1.8-2.5c.3-1.4.1-2.5-.3-2.5-.5 0-.9 1.1-.9 2.5zM337.2 238.5c0 1.6.2 2.2.5 1.2.2-.9.2-2.3 0-3-.3-.6-.5.1-.5 1.8z"/><path d="M288.1 241.6c0 1.1.3 1.4.6.6.3-.7.2-1.6-.1-1.9-.3-.4-.6.2-.5 1.3zM288 245.4c0 .8.4 1.7.9 2 .5.4.7-.3.4-1.4-.6-2.3-1.3-2.6-1.3-.6zM338.1 245.6c0 1.1.3 1.4.6.6.3-.7.2-1.6-.1-1.9-.3-.4-.6.2-.5 1.3zM333.2 249c0 1.4.2 1.9.5 1.2.2-.6.2-1.8 0-2.5-.3-.6-.5-.1-.5 1.3zM287.1 251.6c0 1.1.3 1.4.6.6.3-.7.2-1.6-.1-1.9-.3-.4-.6.2-.5 1.3zM292.5 253.1c-.4.6-.5 1.2-.2 1.5.2.3.7-.2 1-1.1.7-1.7.1-2-.8-.4zM342.2 257c0 1.4.2 1.9.5 1.2.2-.6.2-1.8 0-2.5-.3-.6-.5-.1-.5 1.3zM250 257.9c0 .6.4 1.3 1 1.6.6.3.7-.1.4-.9-.7-1.8-1.4-2.1-1.4-.7zM262.7 265.1c.7.7 1.5 1 1.8.7.3-.3-.2-.9-1.2-1.2-1.4-.6-1.5-.5-.6.5zM314.8 264.7c.7.3 1.6.2 1.9-.1.4-.3-.2-.6-1.3-.5-1.1 0-1.4.3-.6.6zM320.8 264.7c.7.3 1.6.2 1.9-.1.4-.3-.2-.6-1.3-.5-1.1 0-1.4.3-.6.6zM338.8 264.7c.7.3 1.6.2 1.9-.1.4-.3-.2-.6-1.3-.5-1.1 0-1.4.3-.6.6zM250.8 265.7c.7.3 1.6.2 1.9-.1.4-.3-.2-.6-1.3-.5-1.1 0-1.4.3-.6.6zM273.3 265.7c.9.2 2.3.2 3 0 .6-.3-.1-.5-1.8-.5-1.6 0-2.2.2-1.2.5zM323.8 266.7c.7.3 1.6.2 1.9-.1.4-.3-.2-.6-1.3-.5-1.1 0-1.4.3-.6.6zM334.8 268.7c.7.3 1.6.2 1.9-.1.4-.3-.2-.6-1.3-.5-1.1 0-1.4.3-.6.6zM276.8 276.2c.6.6 1.8.8 2.8.6 1.4-.3 1.2-.5-.9-1-1.9-.3-2.5-.2-1.9.4zM261.8 276.7c.7.3 1.6.2 1.9-.1.4-.3-.2-.6-1.3-.5-1.1 0-1.4.3-.6.6zM334.8 277.7c.7.3 1.6.2 1.9-.1.4-.3-.2-.6-1.3-.5-1.1 0-1.4.3-.6.6zM249.1 285.7c.2 3.3.6 4 1.6 3.1.7-.5 1-1.5.6-2.2-.4-.6-.8-1.7-.9-2.4-.6-3.4-1.5-2.2-1.3 1.5zM247.8 294.3c-.3 1.9-.2 2.5.4 1.9.6-.6.8-1.8.6-2.8-.3-1.4-.5-1.2-1 .9zM247.5 303.1c-1.1 1.6-.1 1.9 1.3.3.7-.8.8-1.4.3-1.4s-1.3.5-1.6 1.1zM250.5 305.1c-.4.6-.5 1.2-.2 1.5.2.3.7-.2 1-1.1.7-1.7.1-2-.8-.4zM249.6 313.9c-.3.5.2 1.5 1.2 2.2 1.5 1.2 1.6 1.2.5-.2-.7-.9-1-1.9-.6-2.2.3-.4.4-.7 0-.7-.3 0-.8.4-1.1.9zM249.9 322.2c-.5 4.7-.6 9.1-.2 7.8.3-.8 1.1-2.1 1.7-2.9.9-1.2.8-1.3-.3-.7-1 .7-1.2.2-.6-2.3.4-1.7.4-3.1.1-3.1-.3 0-.7.6-.7 1.2zM350.1 322.6c0 1.1.3 1.4.6.6.3-.7.2-1.6-.1-1.9-.3-.4-.6.2-.5 1.3zM309.9 334.7c-1.3 1.6-1.2 1.7.4.4.9-.7 1.7-1.5 1.7-1.7 0-.8-.8-.3-2.1 1.3zM330.5 338c1 1.1 2 2 2.2 2 .2 0-.2-.9-.9-2s-1.7-2-2.2-2c-.5 0-.1.9.9 2zM350.1 343.6c0 1.1.3 1.4.6.6.3-.7.2-1.6-.1-1.9-.3-.4-.6.2-.5 1.3zM333 344.4c0 .2.8 1 1.8 1.7 1.5 1.3 1.6 1.2.3-.4s-2.1-2.1-2.1-1.3zM258.5 345.9c-.3.5-.2 1.2.3 1.5.5.3.9-.1.9-.9 0-1.7-.3-1.9-1.2-.6zM338.2 347c0 1.4.2 1.9.5 1.2.2-.6.2-1.8 0-2.5-.3-.6-.5-.1-.5 1.3zM295.1 348.6c0 1.1.3 1.4.6.6.3-.7.2-1.6-.1-1.9-.3-.4-.6.2-.5 1.3zM354.1 349.6c0 1.1.3 1.4.6.6.3-.7.2-1.6-.1-1.9-.3-.4-.6.2-.5 1.3zM257.7 351.8c-1.1 1-1.7 1.2-1.7.4 0-.7-1-1.2-2.2-1.1-1.6 0-1.8.2-.8.6.8.3 1.8 1.1 2.2 1.7.4.7 1.4.4 2.7-.8 1.8-1.7 1.9-1.7 2.4.1.4 1.5.5 1.6.6.1.2-2.5-1.3-2.9-3.2-1zM352.2 353c0 .8.4 2.6.8 4 .6 2 .8 2.1.8.5 0-1.1-.3-2.9-.8-4-.5-1.2-.8-1.4-.8-.5zM337.4 354.5c-.3.8-.4 2-.2 2.7.3.7.7.1 1-1.5.6-2.9.1-3.6-.8-1.2z"/><path d="M258.6 355.3c.3 1 .9 1.5 1.2 1.2.3-.3 0-1.1-.7-1.8-1-.9-1.1-.8-.5.6zM296 357.8c0 .6-1 2.1-2.2 3.2-1.8 1.6-1.9 2-.5 1.4 1.9-.7 4.2-4.2 3.3-5.2-.3-.3-.6 0-.6.6zM263 359.4c0 .2.7.7 1.6 1 .8.3 1.2.2.9-.4-.6-1-2.5-1.4-2.5-.6zM267.6 364.1c.4.7 4.4 0 4.4-.7 0-.2-1.1-.3-2.4-.2-1.4.1-2.3.5-2 .9zM436 396.4c-3.1 8.2-1.4 16.3 4.1 19.1 2.9 1.6 3 1.9.2 13.8-1 4.4-2.2 7.3-3.4 8-2.3 1.4-2.4 2.9-.4 6.7 2.8 5.4 11.7 8.4 17.8 6.1 2.1-.8 2.6-.6 3.1 1.2.3 1.2.6 3.9.6 5.9 0 2.4 1.1 5.5 3 8.6 4.2 6.9 3.8 11-1.6 15.7-2.3 2-6 13.8-4.8 15.6.3.5 15.4.9 35 .9H524v2.5c0 1.4.8 2.9 1.9 3.5 1.2.6 10.2 1 22.4 1 16.1 0 20.7-.3 21.6-1.4.6-.7 3-1.6 5.3-1.9 5.8-.8 11.7-5.3 14.7-11.2 4.8-9.2 3.6-26.3-2.6-37.7-3.6-6.5-15-17.3-19.3-18.1-1.8-.4-6.5-.7-10.6-.7-4 0-8.5-.5-10.1-1.1-5-1.9-24.7-6.7-34.3-8.4-7.1-1.2-11.6-2.8-19.1-6.6-8.9-4.4-9.8-5.1-8.9-6.9 1.8-3.5.7-16.1-1.4-16.1-.6 0-1.5 1.8-2.2 4.1-2.4 8.2-8.1 10.7-15.5 6.9-4.3-2.2-6.1-2.2-17.4-.4-5.4.9-8.4-1.5-9.2-7.3-.6-4.7-1.9-5.4-3.3-1.8zM420.5 524.2c-.8 2.8-1.5 5.8-1.5 6.6 0 2.4 4.1 8.9 6.5 10.2 1.9 1 2.1 1.6 1.4 6.3-1.1 8.5-2.9 13.9-5.2 15.8-2.1 1.7-2.1 1.8-.4 5.3 2.6 5.6 6.9 7.8 14.4 7.3 6.9-.5 7.3-.2 7.3 6.5 0 2.2.8 5.2 1.8 6.6 5 7.3 5.1 13.5.3 17.4-2.1 1.7-3.2 4.1-4.4 8.7-.9 3.6-1.4 6.9-1.1 7.3.3.4 15.9.8 34.8.8h34.2l.9 3.2 1 3.3 20.5.6c14.9.4 21 .2 22.5-.7 1.1-.6 3.6-1.5 5.5-1.9 12.4-2.7 18.9-11.5 19-25.5 0-13-3.8-23.2-11.9-32.2-8-8.8-10.3-9.9-23.4-10.7-6.2-.4-11.7-1-12.2-1.3-2-1.2-20.4-5.7-31.1-7.7-8.5-1.5-13-3-20.4-6.6-5.2-2.6-9.7-4.9-9.9-5.1-.2-.2.2-1 .9-1.9.9-1.1 1.1-3.7.8-8.6-.7-9-2.3-10.9-3.9-4.5-1.3 5.2-5.6 9.6-9.3 9.6-1.3 0-4.5-1-7.2-2.2-4.4-1.9-5.4-2-10.4-1-6.4 1.4-11 1.5-12.7.4-1.5-1-3.3-5.7-3.3-8.8 0-4.1-1.8-2.7-3.5 2.8zM168.5 397c-.6 1.9-1.5 2-16.3 2.1-17.1 0-21.4.9-24.4 4.9-2.6 3.6-3.3 10.8-1.5 15.2 2.7 6.5 4.9 7.2 24.1 7.8 16.6.5 17.1.6 18.2 2.8.6 1.3 1.4 2 1.7 1.5 1-1.5.6-11.3-.4-11.3-.5 0-.9.7-.9 1.5 0 2.6-4.6 3.5-18.6 3.5-18.5 0-22.4-1.8-22.4-10.5 0-2.5.8-4.3 2.5-6 2.4-2.5 2.7-2.5 20-2.5 16.8 0 17.7.1 18.2 2 1.1 4 1.8 1.8 1.8-5.5 0-7.4-.7-9.4-2-5.5zM661.4 400.2c-.3.4.9 1.4 2.5 2.3 3.8 1.9 6.1 5.2 6.1 8.6 0 5.6-.5 5.9-10.6 5.9H650v-4.6c0-4.2.2-4.6 3.5-6 1.9-.8 3.5-1.6 3.5-1.9 0-.3-3.5-.5-7.7-.5l-7.8.1 2.8 2c2.2 1.7 2.7 2.8 2.7 6.5v4.5l-8.2-.3c-8.1-.3-8.3-.4-8.6-2.9-.5-4 2.3-9.8 5.3-10.9 3.8-1.4 3.1-2-2.5-2h-5v13.5c0 8.3.4 13.5 1 13.5s1-.9 1-2c0-1.9.7-2 19.6-2 18.7 0 19.6.1 20.1 2 .3 1.1.9 2 1.4 2 .6 0 .8-5.9.7-13.8l-.3-13.7-4.8-.6c-2.7-.3-5-.2-5.3.3zM665.8 437.8c4.5 4.2 5.4 7.8 2.6 10.6-1.3 1.3-4.4 1.6-18.4 1.6-9.3 0-17.5-.3-18.4-.6-.9-.3-1.6-1.5-1.6-2.5s-.4-1.9-1-1.9-1 3.2-1 7.5c0 7.1 1.1 9.9 2.3 5.5.5-1.9 1.4-2 19.6-2H669l.6 2.5c1.4 5.8 2.4 1.7 2.4-10.4 0-14.2.1-14.1-6.7-14.1h-3.6l4.1 3.8zM127 443.5c0 3.7.4 6.5 1 6.5s1-.9 1-2 .6-2.3 1.3-2.6c.7-.2 8.3-.3 17-.2l15.7.3-19 11.5c-10.5 6.3-18.8 11.9-18.7 12.5.2.6 8.6 1.1 21.6 1.3 20.2.2 21.3.3 21.8 2.2.9 3.4 1.9 1.3 2.1-4.4.1-6-.8-7.1-2.6-3.1-1.2 2.5-1.2 2.5-14.8 2.5-7.6 0-13.4-.3-13-.7.4-.5 7.4-4.9 15.4-9.8l14.7-9 .3-5.3c.3-5.2-1.1-7.1-2.3-3.2-.6 1.9-1.5 2-19.6 2H130l-1-2.5c-1.5-4-2-3-2 4zM628 475c0 4.7.4 8 1 8s1-.9 1-1.9c0-1 .6-2.1 1.4-2.4 2.5-1 33.3-.8 35.9.2 1.5.6 2.7 1.7 2.7 2.6 0 .8.5 1.5 1 1.5 1.3 0 1.3-14.7.1-15.5-.5-.3-1.1.5-1.3 1.7-.3 2.3-.4 2.3-19.6 2.6l-19.2.2-1-2.5c-.5-1.4-1.2-2.5-1.5-2.5-.3 0-.5 3.6-.5 8zM127 490c0 4.4.2 8 .5 8s1-1.1 1.5-2.5l1-2.5h18.9c18.1 0 19 .1 19.6 2 1.3 3.9 2 1.9 2-5.5 0-4.1-.3-7.5-.7-7.5-.5 0-.8.4-.8.9s-.7 1.7-1.6 2.6c-1.4 1.3-4.1 1.6-17.3 1.5-18.5-.2-21.1-.6-21.1-3.1 0-1.1-.4-1.9-1-1.9s-1 3.3-1 8zM628 498c0 4.4.2 8 .5 8s1-1.1 1.5-2.5c.9-2.4 1.3-2.5 9-2.5h8v18.1l-8.2-.3c-7.7-.3-8.3-.5-8.6-2.6-.2-1.2-.8-2.2-1.3-2.2s-.9 3.6-.9 8 .2 8 .5 8 1-1.1 1.5-2.5l1-2.5h38l.6 2.5c1.2 5 2.4 2.3 2.4-5.5 0-8.1-.7-9.8-2.5-5.8-.9 2.2-1.6 2.3-10.5 2.3h-9.5v-17l9.7-.3c9.7-.3 9.7-.3 10.4 2.3 1.2 5 2.4 2.4 2.4-5.5 0-8.1-.7-9.8-2.5-5.8-1 2.3-1.3 2.3-20 2.3-18.9 0-19 0-19.3-2.3-.2-1.2-.8-2.2-1.3-2.2s-.9 3.6-.9 8zM168 503.1c-1 1.3-8.3 4.4-21.4 8.9-10.9 3.8-20.1 7.2-20.4 7.5-.4.3.3.8 1.5 1.1 1.1.3 10.5 3.4 20.9 6.8 15.7 5.2 19.1 6.6 20.1 8.7.7 1.3 1.3 2.2 1.4 1.9.3-2 .5-12 .1-12-.2 0-1.1.9-2 2-1.7 2-1.7 2-14.2-1.6-6.9-1.9-12.9-3.9-13.3-4.3-.8-.8 22.4-9.1 25.2-9.1.8 0 2 .8 2.7 1.7 1.1 1.6 1.3.7 1.4-6 0-4.2-.1-7.7-.2-7.7-.2.1-1 1-1.8 2.1zM629 539.5c-1.6 1.9-2.5 10.2-1.6 15 .9 4.5 6.8 11.2 12.1 13.6 10 4.6 24.8 1 30.3-7.4 2.3-3.5 2.7-5.1 2.7-11.3 0-9.3-1.8-11.7-8.6-11.2l-4.4.3 4.2 2.2c7.2 3.9 9 8.6 5.6 14.4-3 5-9.4 7.4-19.8 7.4-7.4 0-9.8-.4-13.2-2.3-5.2-2.7-7.3-5.6-7.3-10s1.4-6.8 5-8.7c1.7-.9 3-2 3-2.5 0-1.6-6.6-1.1-8 .5zM126.8 553.8c-.3 9.3-.2 13.9.6 14.4.6.4 3.1.8 5.6.7h4.5l-2.5-1.7c-5.3-3.6-6.1-5.1-5.8-10l.3-4.7 9.8-.3 9.7-.3v3.6c0 3.7-2.8 7.5-5.5 7.5-.8 0-1.5.4-1.5 1s3.2 1 7.6 1c4.7 0 7.3-.4 6.9-1-.3-.6-1.3-1-2.1-1-1.7 0-3.4-4-3.4-8.1V552h17v4.6c0 4.1-.5 5.1-3.6 8.1l-3.7 3.4 4.9-.3 4.9-.3v-12.8c0-12.2-.6-16.2-1.8-11.7-.5 1.9-1.4 2-20.1 2-18.7 0-19.6-.1-19.6-1.9 0-1.1-.4-2.2-.9-2.5-.4-.3-1.1 5.6-1.3 13.2zM127 584.5c0 7.1 1.1 9.9 2.3 5.5.5-1.8 1.4-2 9.6-2 7.4 0 9.1.3 9.1 1.5 0 2-3 3.8-12.7 7.6l-8.3 3.2v5.1c0 5 .1 5.1 1.8 2.9.9-1.2 5.9-4 11-6.2l9.4-4 2.4 2.8c3 3.6 8.1 4.7 12.8 2.7 5.1-2.1 6-4.7 6.1-16.4.1-9.6-.6-12.8-1.8-8.2-.6 2.2-.1 2.2-22.7 2.4-15.7.2-17 0-17-2.5 0-1.1-.4-1.9-1-1.9s-1 3.2-1 7.5zm41 6.9c0 4.5-2.9 6.6-9 6.6-5.8 0-7.9-1.5-8.7-6.3l-.6-3.7H168v3.4zM627 612.9c0 4.8-.3 10.9-.6 13.5-.7 4.7.8 6.7 1.9 2.5.5-2 1-2 17.9-1.4 20.7.7 21.8.9 21.8 3.5 0 1.1.5 2 1 2 .6 0 1-2.2 1-4.8 0-2.7.3-8.9.6-13.9l.7-9-5.3-.7c-2.9-.4-5.4-.5-5.7-.2-.3.2 1.1 1.5 3.1 2.8 4.5 2.9 6.2 6.7 5 11.1-.9 2.9-1.4 3.2-5.4 3.5-2.5.2-6.9.1-9.7-.3-4.7-.6-5.3-.9-5.3-3 0-4.5 1.7-7.3 4.9-8 5.3-1.1 2.4-2.5-5.2-2.5l-7.2.1 2.8 2c2.2 1.7 2.7 2.8 2.7 6.5v4.5l-8.2-.3-8.3-.3-.3-3.8c-.4-4.4 1.7-8.2 5.4-9.9 3.8-1.8 2.8-2.8-2.6-2.8h-5v8.9zM155.1 616.6c-4.2 1.8-5.4 3.4-8.2 10.7-2.5 6.6-6.7 10.7-11 10.7-3.7 0-7.9-3.9-7.9-7.3 0-3.2 3.2-7.1 7-8.7 4.5-1.8 3.7-3.3-1.2-2.5-6.7 1.1-8.1 2.9-7.6 9.9.4 5.3.8 6.3 4.1 9.2 3.2 3 4.4 3.4 8.9 3.4 8.8 0 13.1-3.9 16.7-15.3 1.7-5.1 3.6-6.7 8-6.7 4 0 5.4 1 6.6 4.8.5 1.9-.1 3.1-3.4 6.2-2.3 2.2-4.1 4.1-4.1 4.4 0 .9 8.5-1.6 9.3-2.7 1-1.5.1-9-1.4-11.8-1.4-2.7-6.8-5.9-9.9-5.9-1.4.1-4 .7-5.9 1.6zM624 639.3c-4.8 2.5-10.8 10.3-13.6 17.5-1.7 4.2-1.1 7.2.7 3.9.6-.9 1.4-1.7 1.9-1.7s7.7 4.6 16 10.2c14.3 9.8 15 10.4 14.4 13-.7 3.5.9 3.6 2.5.2.6-1.5 2.7-4.5 4.5-6.8 9.6-11.9 9.8-22.7.4-31.1-8.4-7.6-18.5-9.6-26.8-5.2zm15 5.7c9.5 4.8 16.1 14.3 14.6 20.7-1.1 4.3-3.4 7.3-5.6 7.3-2.7 0-32-19.6-32-21.4 0-2.2 4.1-6.7 7.4-8.2 3.9-1.8 10.3-1.1 15.6 1.6zM170.5 639.7c.3 1 .7 2.2.8 2.7.2.7-27.5 18.8-31.1 20.3-.7.3-2.2-.3-3.2-1.2-3-2.7-2.4-.5 1.7 6.4 3.9 6.5 5.6 7.8 4.7 3.3-.5-2.5.1-3.1 7.8-7.8 4.6-2.8 11.8-7.3 16.1-9.9 7.5-4.7 7.8-4.7 9.7-3 3 2.7 2.4.5-1.7-6.4-3.3-5.6-6.4-8.4-4.8-4.4zM181 658.9c0 .5.7 1.1 1.5 1.5.8.3 1.5 1.2 1.5 2.1 0 1.9-14.9 31.8-16.2 32.6-.6.4-1.9.4-2.9.2-1-.3-1.9-.1-1.9.3 0 .5 4.5 3.1 9.9 5.7 11 5.4 17.2 6.2 23.1 3.2 10.1-5.2 15.9-20.6 11.6-30.8-2-4.8-8.4-9.8-16.5-13-7.4-2.8-10.1-3.3-10.1-1.8zm18.4 9.1c9.6 9.5-1.7 35-15.4 35-4.2 0-9-2.6-9-4.9 0-1 3.6-9.2 8-18.1 7.9-15.9 8.1-16.2 10.8-15.5 1.5.3 4 1.9 5.6 3.5zM447.2 668.5c-2 8.1-2.2 9.5-1.3 9.5.5 0 1.8-1.6 2.9-3.5 2.1-3.4 5.8-5.2 8.7-4.1 1.3.4 1.5 3.4 1.5 18.1 0 17.6-.6 21.5-3.5 21.5-.8 0-1.5.4-1.5.9 0 1.1 14.8 1.2 15.5.1.3-.4-.6-1.1-2-1.4l-2.5-.6v-39.1l3.8.3c3.2.3 4 .8 5.6 4.1 2.3 4.8 3.6 3.4 3.6-4.1 0-5-1.2-6.8-2.4-3.7-.4 1.2-2.8 1.5-12.7 1.5-10.4 0-12.4-.3-13.4-1.7-1.2-1.6-1.4-1.3-2.3 2.2zM229.6 675.2c-1.4 4.6-4.3 13.9-6.4 20.8-3 9.8-4.3 12.7-6 13.5-3.8 1.7-2.4 2.5 4.3 2.5 7 0 8-.5 3.9-2-2.7-1.1-2.8-2.6-.3-10.8 1-3.1 1.3-3.2 6.2-3.2h5.2l1.8 6.1c1.8 6.2 1.6 7.9-.9 7.9-.8 0-1.4.4-1.4 1s3.2 1 7.5 1c4.1 0 7.5-.2 7.5-.5s-1.1-1.6-2.4-2.8c-1.8-1.6-3.9-6.8-7.6-18.7-2.8-9.1-5.6-18-6.1-19.8-.6-1.7-1.4-3.2-1.9-3.2s-2 3.7-3.4 8.2zm3.6 10.6c1 3.1 1.8 6 1.8 6.4 0 .5-1.8.8-4 .8s-4-.3-4-.6c0-1.8 3.5-13.3 3.9-12.8.3.2 1.3 3 2.3 6.2zM258.8 667.7c-1.4.2-3.2 1.1-3.8 1.9-1 1.2-.8 1.4 1.4 1.4h2.6v38l-2.5.6c-4.9 1.2-1.4 2.1 9 2.2 14.6.3 20.1-2.2 24.7-11.2 1.6-3.2 1.9-5.4 1.6-12.2-.3-7.2-.7-8.7-3.3-12.5-4.4-6.2-9.3-8.4-19-8.5-4.4-.1-9.2 0-10.7.3zm20.3 4.9c4.4 4.2 6.2 10 5.7 18.6-.6 11.6-4.4 17.2-12.4 18.5-6.2 1-6.4.3-6.4-20.7 0-14.1.3-19 1.3-19.4 2.8-1.3 9 .3 11.8 3zM350.7 667.7c-.3.4-2.8 8.2-5.6 17.3-7.2 23.3-7.9 25-10.2 25-1 0-1.9.4-1.9 1s2.8 1 6.5 1 6.5-.4 6.5-1-.9-1-2-1c-2.4 0-2.6-2.7-.9-9.6l1.1-4.4h10.7l1.5 5.4c2.1 7.1 2 8.6-.4 8.6-1.1 0-2 .4-2 1s3.2 1 7.5 1c4.1 0 7.5-.3 7.5-.6s-.9-1.3-2-2.2c-1.4-1.1-4.1-8.2-8.1-21.2-6.1-19.2-7.2-22-8.2-20.3zm2.3 24c0 .8-1.4 1.3-3.5 1.3-4.1 0-4.3-.9-1.8-9.1l1.6-5.4 1.8 6c1 3.3 1.9 6.6 1.9 7.2zM421.4 668c-4.8 1.9-7.4 9.3-5.4 15.4.9 2.7 2.7 4.6 8 8 7.6 5.1 9 6.8 9 11.9 0 5.9-5.9 9.4-11.1 6.7-2.2-1.2-4.9-6.1-4.9-9 0-1.1-.4-2-1-2-.5 0-1 2.4-1 5.4 0 6.8 2 8.6 9.7 8.6 4.6 0 5.8-.4 8.9-3.3 4-3.6 5.5-8.8 4.3-14.5-.9-4.3-3-6.6-10.5-11.4-6.6-4.1-8.1-6.8-6.4-11.2 2.3-6.2 9.4-5 12.7 2.2l1.7 3.7.4-4.5c.3-3.4-.1-4.7-1.4-5.7-2-1.5-9.8-1.6-13-.3zM531 680.2c-8.2 26.6-9.2 29-11.1 29.5-4.1 1.1-1.6 2.3 4.6 2.3 7 0 8-.5 4-2-2.9-1.1-2.9-1.7-1.2-8.5l1.3-5h10.8l1.7 5.9c1.9 6.2 1.7 7.6-.7 7.6-.8 0-1.4.4-1.4 1s3.2 1 7.5 1 7.5-.4 7.5-1-.7-1-1.5-1c-2.1 0-3.4-3.2-10-24.3-3.3-10.3-6.2-18.7-6.7-18.7-.4 0-2.6 6-4.8 13.2zm5 5.4c1.1 3.6 2 6.8 2 7 0 .2-1.8.4-4 .4s-4-.2-4-.5c0-1.2 3.3-13.5 3.6-13.5.2 0 1.2 3 2.4 6.6zM370 668.5c0 .3 1.1 1 2.5 1.5l2.5 1v16c0 18.1.9 21.9 5.9 24.4 3.6 1.9 11.9 2.1 15.6.4 5-2.3 5.9-5.7 6.3-24.1.4-16.7.4-16.8 2.8-17.7 3.8-1.5 2.8-2-3.6-2-5.8 0-8 1.2-4.1 2.3 2.7.7 3.5 6.9 2.9 22.4-.5 11.9-.6 12.6-3.2 15.1-2.1 2.1-3.6 2.7-7.1 2.7-7.5 0-7.9-.9-8.5-20.4-.6-19.4-.5-20.1 2.1-20.1 1 0 1.9-.5 1.9-1 0-.6-3.3-1-8-1-4.4 0-8 .2-8 .5z"/><path d="M484 668.9c0 .5.9 1.1 2 1.4 1.9.5 2 1.4 2 19.6V709l-2.5.6c-4.6 1.1-1.4 2.4 6.1 2.4 7 0 9.8-1.2 5.4-2.3-1.3-.3-2-1.4-2.1-2.9 0-1.2-.1-5.3-.2-9.1-.2-6.3-.1-6.7 2-6.7 1.7 0 2.7 1.5 5.3 7.7 1.8 4.3 3.7 9 4.2 10.5.9 2.5 1.4 2.8 5.9 2.8 4.8 0 6.6-1.3 3-2.3-1.1-.3-3-3.2-5-8.3-1.8-4.4-3.9-8.9-4.7-10.1-1.2-2-1.2-2.2.6-2.8 2.8-.9 5-5.6 5-10.5 0-3.3-.6-4.8-2.9-7.1-2.9-2.8-3.2-2.9-13.5-2.9-5.8 0-10.6.4-10.6.9zm19 3.8c1.8 2.3 2.1 3.7 1.7 7.7-.5 5.7-2.6 7.8-7.1 7.4l-2.9-.3v-7.7c.1-4.2.4-8.1.7-8.7 1.3-2.1 5.4-1.2 7.6 1.6zM558 668.9c0 .5.9 1.1 2 1.4 1.9.5 2 1.4 2 19.6V709l-2.5.6c-1.4.3-2.5 1-2.5 1.5 0 .6 5.6.8 13.3.7l13.2-.3.3-5 .3-5-3.3 3.8c-3.9 4.4-8.6 5.8-11.2 3.2-1.4-1.5-1.6-3.9-1.4-19.8.3-18 .3-18.2 2.6-18.5 1.2-.2 2.2-.8 2.2-1.3s-3.4-.9-7.5-.9-7.5.4-7.5.9z"/></svg>